<svg xmlns="http://www.w3.org/2000/svg" xmlns:xlink="http://www.w3.org/1999/xlink" width="144.367" height="103.886" viewBox="0 0 144.367 103.886">
  <defs>
    <clipPath id="clip-path">
      <path id="Path_35" data-name="Path 35" d="M0,53.81H144.367V-50.076H0Z" transform="translate(0 50.076)" fill="#7c7c7c"/>
    </clipPath>
  </defs>
  <g id="Group_33" data-name="Group 33" transform="translate(0 50.076)">
    <g id="Group_32" data-name="Group 32" transform="translate(0 -50.076)" clip-path="url(#clip-path)">
      <g id="Group_3" data-name="Group 3" transform="translate(38.395 0.001)">
        <path id="Path_6" data-name="Path 6" d="M50.288.629c-.129.216-.371.434-.369.649a25.246,25.246,0,0,0,.166,3.388c.066.444.55.824.824,1.2H-37.614v96.386a1.107,1.107,0,0,0,.22.037c1.871,0,3.745.052,5.612-.039A6.784,6.784,0,0,0-26.7,99.529a11.24,11.24,0,0,0,2.131-4.5c.071-.295.166-.448.523-.326v8.056h-.606q-10.761,0-21.522-.008c-.214,0-.612.2-.624-.212-.015-.434.394-.222.6-.23.649-.031,1.3-.012,2-.012V-.585H59.157V5.771c-.145-.407-.272-.761-.4-1.11a10.733,10.733,0,0,1-1.736-.017,1.9,1.9,0,0,1-1.8-1.875c-.1-.77-.093-1.554-.129-2.334-.008-.187,0-.375,0-.562-.06-.023-.122-.046-.183-.066-.137.243-.386.488-.388.732A25.05,25.05,0,0,0,54.642,3.7,1.714,1.714,0,0,0,56.327,5.13a6.737,6.737,0,0,0,1.12-.023c.367-.039.73-.137,1.1-.21a2.216,2.216,0,0,1-1.678,2.846,16.5,16.5,0,0,1-4.348.311V6c.488-.106,1-.218,1.506-.328,0-.023-.006-.046-.01-.066L51.8,5.394c0-.073,0-.145.006-.216.664-.027,1.328-.1,1.987-.064a1.087,1.087,0,0,0,1.05-.668c-.5-.322-.948-.676-.9-1.344-.795.145-1.064.61-.927,1.537-.6.164-.709.1-.714-.483-.01-1.348-.006-2.7-.008-4.05V-.527c-.792.127-.917.27-.913,1q.012,1.951.025,3.9V4.95l-.16.071a3.441,3.441,0,0,1-.506-.909A20.721,20.721,0,0,1,50.46,1.9c-.035-.4-.006-.8-.006-1.2L50.288.629M42.158-.506C40.907-.355,41.521.639,41.3,1.21H39.187c.039-.135.06-.205.1-.338-.288.137-.5.241-.784.375V-.539c-.832.185-.9.272-.9,1.037,0,.417,0,.834,0,1.29h-.585l-3.954-.025a.771.771,0,0,0-.875.5h5.433c0,.9.01,1.712,0,2.523-.006.309.077.446.413.419a15.72,15.72,0,0,1,1.948-.091,1.117,1.117,0,0,0,1.093-.7,1.4,1.4,0,0,1-.929-1.363c-.89.353-1.058.666-.88,1.745-.29-.116-.693-.193-.7-.3-.056-.722-.029-1.45-.029-2.22.774,0,1.554.021,2.33-.008.419-.017.525.135.51.531-.027.776-.008,1.552-.008,2.336.718,0,1.348.006,1.979,0,1.691-.019,3.382-.035,5.072-.073.255-.006.672-.062.724-.2a5.392,5.392,0,0,0,.16-1.288c-.346.253-.571.535-.819.562-.2.019-.425-.278-.656-.444l-.7.577c-.129-.226-.222-.39-.313-.556-.585.025-.749.378-.712.907a2.714,2.714,0,0,1-.6.054c-.116-.015-.309-.137-.313-.216-.025-.71-.015-1.419-.015-2.193a7.579,7.579,0,0,0,1.209-.017c.249-.044.629-.216.672-.4.089-.369-.288-.49-.593-.562a3.558,3.558,0,0,0-.631-.071c-.218-.012-.436,0-.687,0V-.523c-1.317.071-.714,1.077-.828,1.718h-2.16ZM24.982,5.164c0-.052,0-.1-.008-.151a13.352,13.352,0,0,1-1.5-.01A1.926,1.926,0,0,1,21.765,3.89,7.46,7.46,0,0,1,21.422.741h.583c1.577,0,3.153,0,4.732-.021A3.3,3.3,0,0,0,27.54.5C27.528.438,27.515.373,27.5.309,27.347.3,27.194.284,27.04.282,24.961.257,22.885.222,20.806.212c-2.585-.01-5.17,0-7.755,0-.378,0-.755-.023-1.017.485h7.2a4.078,4.078,0,0,0-.44.971c-.1.62-.073.639-.7.568-.023-.282-.046-.562-.079-.946a1.034,1.034,0,0,1-1.282.118.409.409,0,0,0-.645.27c-.064.193-.131.386-.216.639l1.259.278c-.008.052-.015.1-.023.156a1.489,1.489,0,0,1-1.22-.01c-.467-.205-.519-.189-.7.342a2.16,2.16,0,0,0,2.176.01,1.332,1.332,0,0,1,.971-.276c.228.012.456.015.683.015.676,0,.7-.031.66-.728-.029-.446-.05-.892-.077-1.344h1.137c.058,1.031.087,2.037.178,3.035a1.809,1.809,0,0,0,1.645,1.66,5.9,5.9,0,0,0,2.427-.293M26.6,4.4c-.382.436-.38.512,0,.855a2.293,2.293,0,0,0,2.915.044.584.584,0,0,1,.319-.17c.761-.027,1.523-.031,2.282-.041a20.261,20.261,0,0,0,4.342-.162c.243-.056.479-.137.718-.207-.766-.147-1.514-.183-2.255-.286C34.156,4.328,33.4,4.16,32.637,4a.392.392,0,0,1-.253-.245c-.12-.651-.212-1.309-.313-1.963s-.2-1.315-.3-1.977A1.262,1.262,0,0,0,31.071,1.5a12.126,12.126,0,0,1,.234,1.626l-1.431.736.857.5c-.817.28-1.029.226-1.5-.361-.06-.077-.127-.147-.191-.222A.926.926,0,0,0,27.87,3.5c-.745.342-.915.577-.865,1.247-.141-.12-.261-.222-.4-.338M17.5,3.232a.832.832,0,0,0-.162.033,1.046,1.046,0,0,0-.651,1.087.5.5,0,0,1-.183.353.317.317,0,0,1-.3-.046c-.382-.822-1.122-.71-1.813-.714-1.755-.008-3.512,0-5.267-.021a3.3,3.3,0,0,1-.848-.266c-.089.183-.247.5-.429.882.253.015.413.031.573.033,2.016.019,4.031.033,6.047.056a3.242,3.242,0,0,1,.519.081c-.006.066-.012.133-.017.2-.351,0-.7,0-1.054,0C11.883,4.9,9.85,4.89,7.819,4.9a1.889,1.889,0,0,0-.568.2c.019.046.035.089.054.135,1.411,0,2.823-.01,4.234,0q2.779.028,5.556.093c.332.006.546-.068.521-.444-.033-.546-.075-1.089-.116-1.649m4.444.4A2,2,0,0,0,24.287,3.6a1,1,0,0,1,.846-.33c1.674.01,3.348.015,5.023-.006.193,0,.527-.154.55-.278a7.9,7.9,0,0,0,.027-1.307c-.3.1-.533.17-.761.241.207,1.056.11,1-.307.853.021-.293.039-.585.066-.994a4.222,4.222,0,0,1-.631.488c-.129.062-.425.071-.452.01-.268-.566-.521-.349-.8-.025a1.3,1.3,0,0,1-.3.183c-.118-.2-.222-.378-.326-.556-.384.106-.718.207-.668.7.006.079-.139.172-.214.259-.064-.089-.176-.176-.185-.272-.025-.278-.01-.558-.01-.892l-.766.241c.048.322.087.591.133.892h-.62c-.029-.282-.056-.544-.091-.88a1.106,1.106,0,0,1-1.286.091.416.416,0,0,0-.645.282c-.062.178-.135.355-.23.612l1.295.293c-.008.058-.015.116-.021.174A1.543,1.543,0,0,1,22.7,3.342c-.4-.23-.593-.114-.753.286M17.715,5.612a5.42,5.42,0,0,0,2.707.021.6.6,0,0,0,.407-.915A4.312,4.312,0,0,0,20,3.662c-.344-.319-1.075-.118-1.529.346-.3.307-.29.635.021,1.052-.22.158-.44.313-.776.552m-2.989-2.27c-.382,0-.763.012-1.145,0a2.133,2.133,0,0,1-2.3-2.3c-.012-.407-.015-.811-.044-1.216a.913.913,0,0,0-.149-.311c-.1.062-.243.1-.3.2a.813.813,0,0,0-.122.411c-.008.647-.017,1.3.008,1.944A1.641,1.641,0,0,0,11.89,3.649a4.216,4.216,0,0,0,2.836-.307m31.706-.517a2.1,2.1,0,0,0,2.307.015,1.3,1.3,0,0,0,.479-1.682A1.022,1.022,0,0,1,48,1.207a.4.4,0,0,0-.637.278c-.062.191-.131.382-.218.633l1.265.276c-.006.048-.015.1-.021.147a1.266,1.266,0,0,1-1.207,0c-.4-.232-.589-.11-.753.288" transform="translate(46.798 0.585)" fill="#7c7c7c"/>
      </g>
      <g id="Group_4" data-name="Group 4" transform="translate(123.356 41.231)">
        <path id="Path_7" data-name="Path 7" d="M7.416,2.55A5.509,5.509,0,0,0,8.2,2.274c.614-.33,1.2-.722,1.83-1.021a1.43,1.43,0,0,1,.915-.085c.637.17,1.247.438,1.919.683V-1.261c-.822.432-1.537.768-2.214,1.17A1.393,1.393,0,0,1,9.272.021,9,9,0,0,0,7.949-.473C7.47-.6,7.314-.854,7.432-1.265a12.53,12.53,0,0,0,5.348-.2,4.854,4.854,0,0,0,1.311-.909v62.05H-6.9V53.02H7.387V10.311a8.629,8.629,0,0,0,.886-.346,10.11,10.11,0,0,0,1.351-.78,1.642,1.642,0,0,1,1.819-.133c.438.207.9.349,1.494.571,0-.548.01-1.01,0-1.473-.048-1.738-.112-3.477-.151-5.215-.023-.931-.22-1.091-1.126-.844-.888.245-1.778.483-2.664.722.774.448,1.647-.01,2.514.156-.23.118-.458.239-.755.392l.909.691c-.319.127-.56.22-.836.328.162.4.369.689.855.618.359-.05.5.079.537.473.106,1.257.071,1.172-.942,1.851a2.617,2.617,0,0,1-2.811.154c-1.027-.467-1.048-.419-1.048-1.564V2.55M10.04,7.321c.114-.143.166-.178.17-.218.085-.755.191-1.508.232-2.265.029-.485-.263-.726-.761-.722a3.449,3.449,0,0,0-.485.033c-.618.093-1.193.517-1.218.89A1.231,1.231,0,0,0,9.015,6.122a1.159,1.159,0,0,1,1.025,1.2" transform="translate(6.901 2.373)" fill="#7c7c7c"/>
      </g>
      <g id="Group_5" data-name="Group 5" transform="translate(91.187 77.731)">
        <path id="Path_8" data-name="Path 8" d="M11.518.307c-.349.973-.7,1.944-1.044,2.917Q6.666,14.041,2.855,24.858c-.075.216-.079.471-.436.481-.386.008-.394-.268-.475-.5Q-2.316,12.814-6.574.787A1.035,1.035,0,0,0-6.811.365v24.5h2.643a1.255,1.255,0,0,1,.386.012c.1.033.166.147.245.226-.083.073-.162.205-.251.212-.371.025-.747.012-1.12.012-1.79,0-3.579,0-5.369-.01-.147,0-.295-.139-.442-.216.145-.079.288-.222.434-.226.813-.021,1.626-.025,2.44,0,.349.01.458-.118.442-.452-.023-.388-.006-.78-.006-1.17V.22h-3.243c-.156-.4-.006-.5.334-.5q4.223.009,8.443,0a.464.464,0,0,1,.521.369Q1.079,7.128,3.527,14.163c.4,1.145.8,2.288,1.245,3.577.12-.315.191-.49.253-.666Q8,8.65,10.969.22a.639.639,0,0,1,.73-.506c2.651.017,5.3.008,7.954.008.286,0,.6-.037.438.473H16.867V24.866c.971,0,1.911,0,2.85,0,.272,0,.514.008.373.442-.156.006-.33.021-.506.023H8.9a.578.578,0,0,1-.241-.008,1.887,1.887,0,0,1-.293-.228c.1-.075.2-.212.3-.214.749-.021,1.5-.012,2.245-.012h.7V.33c-.031-.006-.064-.015-.1-.023" transform="translate(10.719 0.286)" fill="#7c7c7c"/>
      </g>
      <g id="Group_6" data-name="Group 6" transform="translate(15.671 77.168)">
        <path id="Path_9" data-name="Path 9" d="M0,13.616V5.631c.371-.137.5-.012.581.346a10.449,10.449,0,0,0,3.2,5.786,6.219,6.219,0,0,0,4.46,1.763,15.267,15.267,0,0,0,2.946-.245,5.425,5.425,0,0,0,4.035-6.367,4.064,4.064,0,0,0-2.1-2.508A21.144,21.144,0,0,0,8.458,2.731,18.393,18.393,0,0,1,3.645.78,6.635,6.635,0,0,1,.523-4.657a7.454,7.454,0,0,1,4.8-7.219,10.306,10.306,0,0,1,8.02.039c.272.106.541.222.817.319a2.149,2.149,0,0,0,1.473.083,3.757,3.757,0,0,1,.95-.058v6.168c-.322.151-.45,0-.566-.29a34.015,34.015,0,0,0-1.4-3.365,5.827,5.827,0,0,0-6.076-3.189,6.084,6.084,0,0,0-4.286,1.936A3.53,3.53,0,0,0,4.832-4.7a14.221,14.221,0,0,0,3.093,1.5c1.975.739,4,1.338,5.981,2.068a7.529,7.529,0,0,1,3.415,2.436,6.766,6.766,0,0,1,.749,6.981c-1.183,3.079-3.643,4.726-6.757,5.477a13.5,13.5,0,0,1-6.647-.338c-.848-.222-1.695-.452-2.548-.653-.819-.193-1.052-.075-1.552.6-.093.127-.33.147-.566.243" transform="translate(0 12.671)" fill="#7c7c7c"/>
      </g>
      <g id="Group_7" data-name="Group 7" transform="translate(61.725 76.702)">
        <path id="Path_10" data-name="Path 10" d="M15.072,13.561c.18.523-.156.461-.425.461q-4.612,0-9.221,0h-2.3c-.147-.328-.079-.469.274-.465.956.008,1.915,0,2.956,0-.075-.2-.118-.349-.176-.485C4.925,10.169,3.659,7.269,2.419,4.357a.7.7,0,0,0-.759-.5c-2.552.019-5.106.012-7.659,0a.536.536,0,0,0-.6.359c-1.23,3-2.477,6-3.718,9a2.767,2.767,0,0,0-.083.334h2.512a1.266,1.266,0,0,1,.388.012c.1.031.166.145.249.222-.083.075-.164.21-.249.214-.44.025-.88.015-1.317.015q-2.393,0-4.782,0c-.288,0-.552,0-.363-.463.813,0,1.641-.021,2.465.008a.608.608,0,0,0,.678-.456Q-5.653.492-.477-12.124a.634.634,0,0,1,.7-.5.619.619,0,0,1,.647.436Q6.286.332,11.707,12.848c.232.544.488.78,1.1.728.757-.062,1.521-.015,2.27-.015M-2.158-6.292-2.295-6.3C-3.61-3.091-4.925.116-6.253,3.35H2.01C.606.1-.776-3.1-2.158-6.292" transform="translate(14.026 12.62)" fill="#7c7c7c"/>
      </g>
      <g id="Group_8" data-name="Group 8" transform="translate(0.127 77.738)">
        <path id="Path_11" data-name="Path 11" d="M1.7.25H-1.533c-.089-.3-.089-.483.263-.483q5.66.012,11.319.015a.634.634,0,0,1,.122.041V.248H6.943c-.012.207-.029.38-.029.552q0,11.785-.012,23.565c0,.473.16.571.587.556.89-.027,1.782-.008,2.655-.008.176.473-.1.465-.378.465l-10.927,0c-.127,0-.253-.021-.375-.031-.116-.315-.021-.436.295-.432.8.01,1.593,0,2.392,0H1.7Z" transform="translate(1.583 0.233)" fill="#7c7c7c"/>
      </g>
      <g id="Group_9" data-name="Group 9" transform="translate(137.659 11.569)">
        <path id="Path_12" data-name="Path 12" d="M1.015,11.057c0-.411,0-.7,0-.99.01-1.741.015-3.481.035-5.222A2.621,2.621,0,0,1,1.2,4.234l.226.021c.021.257.062.514.06.774q-.006,2.95-.035,5.9c0,.355.062.608.494.631,0-2.8,0-5.593,0-8.383,0-.616.075-1.234.058-1.848C1.966-.581,1.893-2.492,1.822-4.4a1.188,1.188,0,0,0-.106-.332c-.052,0-.1.006-.156.01-.029.537-.081,1.075-.081,1.61A3.641,3.641,0,0,1,.727-.844,1.581,1.581,0,0,1-.611-.2,3.558,3.558,0,0,0-.617-.832c-.05-.268-.156-.525-.23-.788a1.689,1.689,0,0,1-.081-.415c-.008-.763,0-1.529,0-2.294,0-.521.2-.8.71-.853.888-.081,1.782-.112,2.676-.145a.9.9,0,0,1,.851.62,5.141,5.141,0,0,1,.176.49c.819-.017.929-.168.645-.888a1.154,1.154,0,0,0-1.108-.807c-.288-.008-.577,0-.869,0,0-.512-.006-.948,0-1.384,0-.261-.1-.392-.369-.39-.857,0-1.714,0-2.587.068.278.415.556.772,1.093.757.21,0,.421.025.633.027.359,0,.463.191.461.531s-.193.38-.467.39c-.6.021-1.193.068-1.817.106V-7.817c1.008,0,2-.008,2.981,0,.716.008,1.431.033,2.145.081.116.008.317.172.319.266.037,2.126.048,4.253.081,6.381,0,.288-.093.392-.357.469C3.48-.386,3.254-.044,3.254.819c0,1.707-.006,3.417,0,5.124,0,.388-.035.728-.56.84l1.45.494V6.7c.017-1.888.027-3.776.056-5.661a2.3,2.3,0,0,1,.172-.6l.2.035c.021.268.06.533.058.8-.008,1.969-.017,3.938-.041,5.9-.006.369.1.593.446.62,0-1.214,0-2.427,0-3.639q.028-5.978.06-11.958c0-.776-.012-.774-.786-.784Q1.9-8.6-.518-8.645a.629.629,0,0,1-.413-.137.773.773,0,0,1,.22-.077c1.351-.029,2.7-.017,4.045-.091a2.682,2.682,0,0,0,2.409-1.34V9.717c-.141-.392-.278-.776-.417-1.156L5.2,8.582c0,.313,0,.627,0,.942a1.925,1.925,0,0,1-1.469,2.048A26.826,26.826,0,0,1,.408,12a13.15,13.15,0,0,1-1.346.008c.079-.475-.174-.927.239-1.3.087-.079.039-.311.041-.475l.025-7.464V2.018c.49.027.967.035,1.436.093.166.021.461.187.452.257-.029.274-.091.7-.266.776A1.334,1.334,0,0,0,.117,4.566c.01,1.724,0,3.45,0,5.174,0,.386-.039.741-.61.67l.012.122,1.5.525" transform="translate(0.945 10.29)" fill="#7c7c7c"/>
      </g>
      <g id="Group_10" data-name="Group 10" transform="translate(137.689 36.591)">
        <path id="Path_13" data-name="Path 13" d="M0,2.778V-2.346L2.581-2.5c.454-.027.909-.05,1.363-.081a.6.6,0,0,1,.668.452A1.4,1.4,0,0,1,3.63-.294,11.046,11.046,0,0,1,2.245-.12c-.278,1.307.274,2.166,1.666,2.705L0,2.778" transform="translate(0 2.585)" fill="#7c7c7c"/>
      </g>
      <g id="Group_11" data-name="Group 11" transform="translate(6.21 67.319)">
        <path id="Path_14" data-name="Path 14" d="M2.211,1.495v-2.8c-.2-.019-.384-.037-.564-.056v-.027H4.016v.029l-.546.046V4.561l.539.046v.029H1.655a.157.157,0,0,1,0-.031l.539-.035V1.638H-.251V4.563c.2.015.375.029.55.044v.029H-2.058V4.607c.166-.012.332-.025.529-.041V-1.31l-.512-.05a.1.1,0,0,0,0-.025H.278l0,.025c-.168.012-.336.027-.535.044V1.495Z" transform="translate(2.058 1.391)" fill="#7c7c7c"/>
      </g>
      <g id="Group_12" data-name="Group 12" transform="translate(137.708 32.993)">
        <path id="Path_15" data-name="Path 15" d="M3.439,3.483c-.156-.311-.293-.583-.429-.853l-.124-.01A2.583,2.583,0,0,1,2.03,4.972,7.049,7.049,0,0,0,2.3,1.788C2.279.96,2.161.136,2.134-.691c-.015-.483-.164-.716-.683-.683-1.3.079-2.6.135-3.892.2-.243.012-.483,0-.759,0V-1.8c.691,0,1.4.015,2.1,0,.763-.019,1.529-.037,2.288-.108A2.59,2.59,0,0,0,3.439-3.241Z" transform="translate(3.2 3.241)" fill="#7c7c7c"/>
      </g>
      <g id="Group_13" data-name="Group 13" transform="translate(137.695 10.29)">
        <path id="Path_16" data-name="Path 16" d="M0,1.169V-.144C.083-.177.22-.187.272-.258.878-1.1,1.8-.992,2.662-1.071c.307-.027.618-.015.925-.012.8,0,1.019.162,1.278.917.027.075.06.147.1.241L5.587,0A1.84,1.84,0,0,1,4.267.746C2.873.92,1.469,1.028,0,1.169" transform="translate(0 1.088)" fill="#7c7c7c"/>
      </g>
      <g id="Group_14" data-name="Group 14" transform="translate(0 67.323)">
        <path id="Path_17" data-name="Path 17" d="M.792,3.1l.5-.052V-2.754c-1-.247-1.5.054-2.027,1.3V-2.889H4.524v1.473C4.18-2.462,3.615-3.013,2.537-2.8V3.053l.508.052v.029H.794c0-.01,0-.019,0-.029" transform="translate(0.737 2.889)" fill="#7c7c7c"/>
      </g>
      <g id="Group_15" data-name="Group 15" transform="translate(13.425 67.318)">
        <path id="Path_18" data-name="Path 18" d="M.279.038-.26,0a.157.157,0,0,0,0-.031H2.117V0L1.555.038V5.911l.56.056v.027H-.256V5.963l.535-.039Z" transform="translate(0.26 0.035)" fill="#7c7c7c"/>
      </g>
      <g id="Group_16" data-name="Group 16" transform="translate(24.85 67.32)">
        <path id="Path_19" data-name="Path 19" d="M0,3.107l.544-.046V-2.816L0-2.862v-.029H2.357a.157.157,0,0,1,0,.031c-.166.01-.33.023-.537.035v5.89l.492.035v.027H.027A.3.3,0,0,1,0,3.107" transform="translate(0 2.891)" fill="#7c7c7c"/>
      </g>
      <g id="Group_17" data-name="Group 17" transform="translate(17.042 67.241)">
        <path id="Path_20" data-name="Path 20" d="M1.4,3.175c.2-.149.3-.222.4-.309A1.108,1.108,0,0,0,1.484.908C.946.686.372.551-.17.333A1.614,1.614,0,0,1-1.28-1.459a1.814,1.814,0,0,1,1.622-1.5,4.622,4.622,0,0,0-.5.241A.913.913,0,0,0-.124-1.042c.618.311,1.3.488,1.952.743A1.634,1.634,0,0,1,2.959.875a1.988,1.988,0,0,1-1.56,2.3" transform="translate(1.302 2.955)" fill="#7c7c7c"/>
      </g>
      <g id="Group_18" data-name="Group 18" transform="translate(28.458 67.211)">
        <path id="Path_21" data-name="Path 21" d="M.844,0A4.429,4.429,0,0,0,.153.456.845.845,0,0,0,.267,1.863a5.268,5.268,0,0,0,.975.429c.363.139.739.247,1.1.388A1.612,1.612,0,0,1,3.522,4.091,1.887,1.887,0,0,1,2.7,5.815a1.548,1.548,0,0,1-.674.28c.1-.079.2-.154.293-.239a1.108,1.108,0,0,0-.3-1.96C1.443,3.66.833,3.527.269,3.284A1.61,1.61,0,0,1-.55.94,1.958,1.958,0,0,1,.844,0" transform="translate(0.785)" fill="#7c7c7c"/>
      </g>
      <g id="Group_19" data-name="Group 19" transform="translate(137.687 7.766)">
        <path id="Path_22" data-name="Path 22" d="M3.46,0V2.4L3.024,1.239c-.2.712.039,1.473-.473,2.114-.068-.226-.116-.432-.193-.627a1.035,1.035,0,0,0-.983-.751c-1.342.012-2.687.071-4.031.129a2.437,2.437,0,0,0-.564.176V1.469c.176,0,.346,0,.517,0,1.313-.037,2.628-.033,3.938-.127A2.559,2.559,0,0,0,3.46,0" transform="translate(3.22)" fill="#7c7c7c"/>
      </g>
      <g id="Group_20" data-name="Group 20" transform="translate(137.703 43.489)">
        <path id="Path_23" data-name="Path 23" d="M0,0,1.778.635,1.79.8,0,1.834Z" fill="#7c7c7c"/>
      </g>
      <g id="Group_21" data-name="Group 21" transform="translate(137.689 51.223)">
        <path id="Path_24" data-name="Path 24" d="M0,.948V-.882l1.778.639v.172L0,.948" transform="translate(0 0.882)" fill="#7c7c7c"/>
      </g>
      <g id="Group_22" data-name="Group 22" transform="translate(137.678 35.583)">
        <path id="Path_25" data-name="Path 25" d="M2.289.115c-.116.075-.23.205-.351.212q-1.9.121-3.8.2c-.087,0-.178-.114-.27-.174.062-.056.118-.16.183-.164C-.56.082.828-.012,2.216-.107c.025.073.048.147.073.222" transform="translate(2.13 0.107)" fill="#7c7c7c"/>
      </g>
      <g id="Group_23" data-name="Group 23" transform="translate(137.996 22.496)">
        <path id="Path_26" data-name="Path 26" d="M.985.052c.006.133.017.3.029.533H-.917V-.048l1.9.1" transform="translate(0.917 0.048)" fill="#7c7c7c"/>
      </g>
      <g id="Group_24" data-name="Group 24" transform="translate(16.94 71.606)">
        <path id="Path_27" data-name="Path 27" d="M.74.933C.352.875-.156.8-.689.715V-.868A6.555,6.555,0,0,0-.1.207,5.542,5.542,0,0,0,.74.933" transform="translate(0.689 0.868)" fill="#7c7c7c"/>
      </g>
      <g id="Group_25" data-name="Group 25" transform="translate(28.371 71.646)">
        <path id="Path_28" data-name="Path 28" d="M.8.926-.749.669V-.862A2.726,2.726,0,0,0,.8.926" transform="translate(0.749 0.862)" fill="#7c7c7c"/>
      </g>
      <g id="Group_26" data-name="Group 26" transform="translate(19.561 67.211)">
        <path id="Path_29" data-name="Path 29" d="M.661.126V1.414C.339.812.117.153-.615-.117c.2.058.4.129.606.168S.408.1.661.126" transform="translate(0.615 0.117)" fill="#7c7c7c"/>
      </g>
      <g id="Group_27" data-name="Group 27" transform="translate(30.937 67.223)">
        <path id="Path_30" data-name="Path 30" d="M.683.139V1.392C.362.769.125.1-.636-.129c.421.085.844.17,1.319.268" transform="translate(0.636 0.129)" fill="#7c7c7c"/>
      </g>
      <g id="Group_28" data-name="Group 28" transform="translate(141.813 43.827)">
        <path id="Path_31" data-name="Path 31" d="M0,0,.714.12C.635.253.581.465.467.5.2.593,0,.483,0,0" fill="#7c7c7c"/>
      </g>
      <g id="Group_29" data-name="Group 29" transform="translate(141.796 51.515)">
        <path id="Path_32" data-name="Path 32" d="M.358,0C.445.467.269.6-.024.55-.14.529-.231.359-.333.257L.358,0" transform="translate(0.333)" fill="#7c7c7c"/>
      </g>
      <g id="Group_30" data-name="Group 30" transform="translate(127.373 2.902)">
        <path id="Path_33" data-name="Path 33" d="M1.081,1.216H.367V.111L-.4.328c.035.3.068.579.1.863-.415.133-.6.048-.606-.4,0-.629-.062-1.257-.1-1.925H1.081Z" transform="translate(1.006 1.132)" fill="#7c7c7c"/>
      </g>
      <g id="Group_31" data-name="Group 31" transform="translate(123.881 2.319)">
        <path id="Path_34" data-name="Path 34" d="M1.252.015H-1.165V-.014h2.4Z" transform="translate(1.165 0.014)" fill="#7c7c7c"/>
      </g>
    </g>
  </g>
</svg>
