<svg xmlns="http://www.w3.org/2000/svg" width="29.71" height="28.711" viewBox="0 0 29.71 28.711">
  <path id="Path_9703" data-name="Path 9703" d="M14.856,2.587c3.965,0,4.435.014,6,.083a8.462,8.462,0,0,1,2.757.5A4.845,4.845,0,0,1,26.441,5.9a7.669,7.669,0,0,1,.512,2.665c.073,1.515.088,1.969.088,5.8s-.015,4.287-.088,5.8a7.669,7.669,0,0,1-.512,2.665,4.843,4.843,0,0,1-2.825,2.729,8.422,8.422,0,0,1-2.757.5c-1.565.07-2.035.085-6,.085s-4.436-.015-6-.085a8.422,8.422,0,0,1-2.757-.5,4.843,4.843,0,0,1-2.825-2.729,7.669,7.669,0,0,1-.512-2.665c-.073-1.512-.086-1.966-.086-5.8s.014-4.285.086-5.8A7.682,7.682,0,0,1,3.268,5.9a4.842,4.842,0,0,1,2.825-2.73,8.462,8.462,0,0,1,2.757-.5c1.565-.07,2.035-.083,6-.083m0-2.587C10.82,0,10.315.017,8.73.086A11.131,11.131,0,0,0,5.125.754a7.468,7.468,0,0,0-4.344,4.2A10.289,10.289,0,0,0,.089,8.436C.018,9.968,0,10.457,0,14.354s.018,4.386.089,5.918a10.123,10.123,0,0,0,.692,3.483,7.482,7.482,0,0,0,4.344,4.2,11.228,11.228,0,0,0,3.605.668c1.585.071,2.09.088,6.125.088s4.539-.017,6.124-.088a11.213,11.213,0,0,0,3.605-.668,7.464,7.464,0,0,0,4.344-4.2,10.244,10.244,0,0,0,.692-3.483c.071-1.532.089-2.023.089-5.918s-.018-4.386-.089-5.918a10.131,10.131,0,0,0-.692-3.484,7.468,7.468,0,0,0-4.344-4.2A11.261,11.261,0,0,0,20.979.086C19.394.017,18.89,0,14.856,0m0,6.982a7.5,7.5,0,0,0-7.63,7.372,7.5,7.5,0,0,0,7.63,7.372,7.5,7.5,0,0,0,7.629-7.372,7.5,7.5,0,0,0-7.629-7.372m0,12.156A4.869,4.869,0,0,1,9.9,14.354a4.871,4.871,0,0,1,4.953-4.785,4.87,4.87,0,0,1,4.951,4.785,4.869,4.869,0,0,1-4.951,4.784M24.565,6.692A1.784,1.784,0,1,0,22.78,8.416a1.753,1.753,0,0,0,1.784-1.724" fill="#7c7c7c"/>
</svg>
