<svg xmlns="http://www.w3.org/2000/svg" width="32.557" height="25.574" viewBox="0 0 32.557 25.574">
  <path id="Path_9701" data-name="Path 9701" d="M43.434,27.735c10.424.068,18.933-8.039,19-18.112v-.25c0-.278,0-.556-.018-.834A13.386,13.386,0,0,0,65.751,5.2a13.592,13.592,0,0,1-3.836,1.015A6.522,6.522,0,0,0,64.85,2.641a13.532,13.532,0,0,1-4.24,1.566,6.848,6.848,0,0,0-9.45-.282,6.31,6.31,0,0,0-1.932,6.168A19.2,19.2,0,0,1,35.456,3.35a6.326,6.326,0,0,0,2.066,8.619,6.817,6.817,0,0,1-3.026-.809v.085a6.517,6.517,0,0,0,5.361,6.328,6.951,6.951,0,0,1-3.017.112,6.663,6.663,0,0,0,6.238,4.485,13.711,13.711,0,0,1-8.293,2.763,14.3,14.3,0,0,1-1.591-.088,19.388,19.388,0,0,0,10.237,2.9" transform="translate(-33.194 -2.17)" fill="#7c7c7c"/>
</svg>
