<svg xmlns="http://www.w3.org/2000/svg" width="29.87" height="29.019" viewBox="0 0 29.87 29.019">
  <path id="Path_9700" data-name="Path 9700" d="M103.579,5.095a15.231,15.231,0,0,0-21.024-.061,14.008,14.008,0,0,0-2.381,17.4l-2.109,7.444,7.885-2a15.269,15.269,0,0,0,7.107,1.748,14.621,14.621,0,0,0,14.878-14.353,14.146,14.146,0,0,0-4.359-10.174M93.057,27.2a12.688,12.688,0,0,1-6.293-1.665l-.449-.262-4.676,1.186,1.251-4.407-.295-.455a11.714,11.714,0,0,1,3.9-16.467A12.621,12.621,0,0,1,103.533,8.89a11.714,11.714,0,0,1-3.9,16.467,12.677,12.677,0,0,1-6.573,1.827m6.781-8.942c.372.18.624.269.713.422a2.882,2.882,0,0,1-.217,1.7,3.818,3.818,0,0,1-2.5,1.707,5.289,5.289,0,0,1-2.346-.142,21.979,21.979,0,0,1-2.12-.759,16.416,16.416,0,0,1-6.347-5.417A6.83,6.83,0,0,1,85.5,12.044a3.944,3.944,0,0,1,1.3-2.991,1.4,1.4,0,0,1,.991-.455c.247,0,.5,0,.713.015s.534-.085.836.613,1.055,2.486,1.146,2.665a.642.642,0,0,1,.031.628,2.3,2.3,0,0,1-.372.6c-.186.212-.389.47-.558.628a.52.52,0,0,0-.158.735A10.949,10.949,0,0,0,91.5,16.974a10.272,10.272,0,0,0,2.989,1.781c.372.18.588.153.8-.088s.93-1.048,1.177-1.405.5-.3.836-.179,2.168.987,2.536,1.168" transform="translate(-78.065 -0.855)" fill="#7c7c7c" fill-rule="evenodd"/>
</svg>
